<svg xmlns="http://www.w3.org/2000/svg" viewBox="0 0 981.38 157"><defs><style>.cls-1{fill:#4a4a4a;stroke:#e870a7;stroke-miterlimit:10;stroke-width:6px;}</style></defs><g id="Layer_2" data-name="Layer 2"><g id="Layer_1-2" data-name="Layer 1"><path class="cls-1" d="M99.3,120.2A59.16,59.16,0,0,1,80,123a52,52,0,0,1-16.7-2.6A37.06,37.06,0,0,1,50,112.7,35.52,35.52,0,0,1,41.2,100,45.12,45.12,0,0,1,38,82.4a50.32,50.32,0,0,1,2.9-17.6,38,38,0,0,1,8.2-13.3,35.53,35.53,0,0,1,12.5-8.4,42.52,42.52,0,0,1,16-2.9,46.8,46.8,0,0,1,12.7,1.6,57,57,0,0,1,10.1,3.8,35.9,35.9,0,0,1,7.5,4.9q3.1,2.7,5.1,4.7a21.43,21.43,0,0,0,3.5-2.7,36.18,36.18,0,0,0,4.2-4.6,28.76,28.76,0,0,0,3.6-6.1,17.66,17.66,0,0,0,1.5-7.2,16,16,0,0,0-2-7.7,22.33,22.33,0,0,0-6.6-7.1q-2.2-1.39-5.8-3.2a59.75,59.75,0,0,0-8.7-3.4A78.7,78.7,0,0,0,91,10.6a98.91,98.91,0,0,0-14.8-1,82.3,82.3,0,0,0-28.7,4.9A67.63,67.63,0,0,0,24.3,28.7,66.07,66.07,0,0,0,8.7,51.5Q3,65,3,82.4q0,17.8,5.9,31.2a64.16,64.16,0,0,0,16,22.4,66.91,66.91,0,0,0,23.5,13.5A88.61,88.61,0,0,0,76.8,154a101.8,101.8,0,0,0,19-1.6,99.88,99.88,0,0,0,14.6-3.8,68.06,68.06,0,0,0,10.3-4.5,64.87,64.87,0,0,0,5.9-3.9l-15-25.8A49.69,49.69,0,0,1,99.3,120.2Z"/><path class="cls-1" d="M228.5,61a56.71,56.71,0,0,0-18-11.3,60.81,60.81,0,0,0-43.9,0A57,57,0,0,0,148.7,61a52.44,52.44,0,0,0-12.1,17,51.7,51.7,0,0,0-4.4,21.4,51.7,51.7,0,0,0,4.4,21.4,52.44,52.44,0,0,0,12.1,17,57,57,0,0,0,17.9,11.3,60.81,60.81,0,0,0,43.9,0,56.71,56.71,0,0,0,18-11.3,52.44,52.44,0,0,0,12.1-17A51.7,51.7,0,0,0,245,99.4,51.7,51.7,0,0,0,240.6,78,52.44,52.44,0,0,0,228.5,61Zm-18.2,48.4a22.26,22.26,0,0,1-4.9,7.9,23.63,23.63,0,0,1-7.5,5.2,22.72,22.72,0,0,1-9.3,1.9,22.49,22.49,0,0,1-9.4-1.9,24,24,0,0,1-7.4-5.2,22.26,22.26,0,0,1-4.9-7.9,30.26,30.26,0,0,1,0-20,22.26,22.26,0,0,1,4.9-7.9,24,24,0,0,1,7.4-5.2,22.49,22.49,0,0,1,9.4-1.9,22.72,22.72,0,0,1,9.3,1.9,23.63,23.63,0,0,1,7.5,5.2,22.26,22.26,0,0,1,4.9,7.9,30.26,30.26,0,0,1,0,20Z"/><path class="cls-1" d="M346.9,56.6a48.89,48.89,0,0,0-16.2-8.2,71.05,71.05,0,0,0-39.5,0A50.07,50.07,0,0,0,275,56.6a38,38,0,0,0-11,13.5,41.21,41.21,0,0,0-4,18.5v61.8h32.2V96q0-20.81,18.8-20.8,9,0,13.8,5.1T329.6,96v54.4h32.2V88.6a41.34,41.34,0,0,0-4-18.5A38.61,38.61,0,0,0,346.9,56.6Z"/><path class="cls-1" d="M441.4,122.3a29.34,29.34,0,0,1-10.2,1.7,30.41,30.41,0,0,1-5.5-.5,11.07,11.07,0,0,1-4.8-2.1,12.55,12.55,0,0,1-3.5-4.3,15.88,15.88,0,0,1-1.4-7.3V78.4h35.6a45.38,45.38,0,0,0,2.4-5.9,28.9,28.9,0,0,0,1.6-9.7q0-7.2-3.8-10.8T439,48.4H416v-27c-.8-.27-2.67-.83-5.6-1.7a34.44,34.44,0,0,0-9.8-1.3q-7.61,0-12.2,3.2t-4.6,11v84.2q0,16.61,10.6,26.5t29.4,9.9a59.15,59.15,0,0,0,12.6-1.3,78.18,78.18,0,0,0,10.8-3.1,53.36,53.36,0,0,0,8.2-3.8,33.8,33.8,0,0,0,5.2-3.6l-12.6-22A43.12,43.12,0,0,1,441.4,122.3Z"/><path class="cls-1" d="M545.39,53.8q-3-3-9.7-5.6T517,45.6a57.31,57.31,0,0,0-18,2.7,38.83,38.83,0,0,0-14,7.9,36.35,36.35,0,0,0-9.1,12.8,43.34,43.34,0,0,0-3.3,17.4v64h32.2v-57q0-10.2,5.3-14.6A19.53,19.53,0,0,1,523,74.4a37.87,37.87,0,0,1,10.6,1.4,56.15,56.15,0,0,1,8.2,3c.4-.4,1-1.07,1.8-2a32.78,32.78,0,0,0,2.5-3.4,20.88,20.88,0,0,0,2.2-4.6,17,17,0,0,0,.9-5.6,12.43,12.43,0,0,0-1-5.2A16.46,16.46,0,0,0,545.39,53.8Z"/><path class="cls-1" d="M636.49,54.9a48.5,48.5,0,0,0-17.7-7.2A108,108,0,0,0,597,45.6q-35.6,0-35.6,17.4a13.31,13.31,0,0,0,1,5.2,29.24,29.24,0,0,0,2.2,4.3,17.77,17.77,0,0,0,2.4,3.1l1.6,1.6a20.58,20.58,0,0,1,2.8-1.6,34.48,34.48,0,0,1,5.3-2,57,57,0,0,1,8-1.7,74.36,74.36,0,0,1,10.9-.7q13.2,0,18.9,4a12.72,12.72,0,0,1,5.7,11c-1.87-.27-4.23-.47-7.1-.6s-6.43-.2-10.7-.2q-25.6,0-37.4,7.9t-11.8,26.3a34.94,34.94,0,0,0,2.4,12.9,25.06,25.06,0,0,0,8.4,10.7q6,4.61,16,7.3t25.2,2.7q9,0,17.1-.4t14.4-1q6.3-.6,10.5-1.1a34.38,34.38,0,0,0,5.4-.9V89.4q0-12.6-4.3-21A35.69,35.69,0,0,0,636.49,54.9Zm-16.1,74.5a34.5,34.5,0,0,1-5.8.7q-4.4.3-9.6.3a41.46,41.46,0,0,1-10.6-1.1,16.69,16.69,0,0,1-6-2.7,7.4,7.4,0,0,1-2.6-3.6,13.21,13.21,0,0,1-.6-3.8,13.45,13.45,0,0,1,.8-4.6,8.9,8.9,0,0,1,2.9-3.9,15.82,15.82,0,0,1,5.9-2.7,39.36,39.36,0,0,1,9.8-1q7,0,10.5.3a42.81,42.81,0,0,1,5.3.7Z"/><path class="cls-1" d="M692.39,3q-7.6,0-12.2,3.2t-4.6,11V150.4h32.2V6c-.8-.27-2.67-.83-5.6-1.7A34.44,34.44,0,0,0,692.39,3Z"/><path class="cls-1" d="M788.39,122.3a29.34,29.34,0,0,1-10.2,1.7,30.41,30.41,0,0,1-5.5-.5,11.07,11.07,0,0,1-4.8-2.1,12.55,12.55,0,0,1-3.5-4.3,15.88,15.88,0,0,1-1.4-7.3V78.4h35.6a45.38,45.38,0,0,0,2.4-5.9,28.9,28.9,0,0,0,1.6-9.7q0-7.2-3.8-10.8T786,48.4H763v-27c-.8-.27-2.67-.83-5.6-1.7a34.44,34.44,0,0,0-9.8-1.3q-7.61,0-12.2,3.2t-4.6,11v84.2q0,16.61,10.6,26.5t29.4,9.9a59.15,59.15,0,0,0,12.6-1.3,78.18,78.18,0,0,0,10.8-3.1,53.36,53.36,0,0,0,8.2-3.8,33.8,33.8,0,0,0,5.2-3.6l-12.6-22A43.12,43.12,0,0,1,788.39,122.3Z"/><path class="cls-1" d="M907.89,61a56.93,56.93,0,0,0-18-11.3,60.81,60.81,0,0,0-43.9,0A57,57,0,0,0,828.09,61,52.29,52.29,0,0,0,816,78a51.54,51.54,0,0,0-4.4,21.4,51.54,51.54,0,0,0,4.4,21.4,52.29,52.29,0,0,0,12.1,17A57,57,0,0,0,846,149.1a60.81,60.81,0,0,0,43.9,0,56.93,56.93,0,0,0,18-11.3,52.59,52.59,0,0,0,12.1-17,51.7,51.7,0,0,0,4.4-21.4A51.7,51.7,0,0,0,920,78,52.59,52.59,0,0,0,907.89,61Zm-18.2,48.4a22.4,22.4,0,0,1-4.9,7.9,23.86,23.86,0,0,1-7.5,5.2,22.72,22.72,0,0,1-9.3,1.9,22.49,22.49,0,0,1-9.4-1.9,24,24,0,0,1-7.4-5.2,22.12,22.12,0,0,1-4.9-7.9,30.26,30.26,0,0,1,0-20,22.12,22.12,0,0,1,4.9-7.9,24,24,0,0,1,7.4-5.2,22.49,22.49,0,0,1,9.4-1.9,22.72,22.72,0,0,1,9.3,1.9,23.86,23.86,0,0,1,7.5,5.2,22.4,22.4,0,0,1,4.9,7.9,30.26,30.26,0,0,1,0,20Z"/><path class="cls-1" d="M975.18,16.2c-.8-.27-2.67-.83-5.6-1.7a34.39,34.39,0,0,0-9.8-1.3q-7.6,0-12.2,3.2t-4.6,11v74h32.2Z"/><path class="cls-1" d="M976.88,128.1a18,18,0,0,0-4.2-5.8,21.5,21.5,0,0,0-6.2-4,18.35,18.35,0,0,0-7.3-1.5,18.13,18.13,0,0,0-7.4,1.5,21.84,21.84,0,0,0-6.1,4,18,18,0,0,0-4.2,5.8,17,17,0,0,0-1.5,7.1,17.79,17.79,0,0,0,5.7,13.1,21.84,21.84,0,0,0,6.1,4,18.13,18.13,0,0,0,7.4,1.5,18.35,18.35,0,0,0,7.3-1.5,21.5,21.5,0,0,0,6.2-4,17.79,17.79,0,0,0,5.7-13.1A17,17,0,0,0,976.88,128.1Z"/></g></g></svg>