<svg xmlns="http://www.w3.org/2000/svg" viewBox="0 0 1906.56 156.2"><defs><style>.cls-1{fill:#4a4a4a;stroke:#e870a7;stroke-miterlimit:10;stroke-width:6px;}</style></defs><g id="Layer_2" data-name="Layer 2"><g id="Layer_1-2" data-name="Layer 1"><path class="cls-1" d="M3,32.2q0-19,19.8-19H86.6q9.2,0,13.1,3.9t3.9,11.3a29.29,29.29,0,0,1-1.6,9.9,36,36,0,0,1-2.6,6.1h-63V67.6h45q9.19,0,13.1,3.9t3.9,11.3a29.29,29.29,0,0,1-1.6,9.9,36,36,0,0,1-2.6,6.1H36.4v51.6H3Z"/><path class="cls-1" d="M204.6,149.8a34.38,34.38,0,0,1-5.4.9q-4.2.5-10.5,1.1t-14.4,1q-8.1.4-17.1.4-15.21,0-25.2-2.7t-16-7.3a25.06,25.06,0,0,1-8.4-10.7,34.94,34.94,0,0,1-2.4-12.9q0-18.4,11.8-26.3t37.4-7.9c4.27,0,7.83.07,10.7.2s5.23.33,7.1.6a12.72,12.72,0,0,0-5.7-11q-5.7-4-18.9-4a74.27,74.27,0,0,0-10.9.7,56.73,56.73,0,0,0-8,1.7,34.48,34.48,0,0,0-5.3,2,20,20,0,0,0-2.8,1.6L119,75.6a17.77,17.77,0,0,1-2.4-3.1,28.3,28.3,0,0,1-2.2-4.3,13.31,13.31,0,0,1-1-5.2q0-17.4,35.6-17.4a108,108,0,0,1,21.8,2.1,48.5,48.5,0,0,1,17.7,7.2,35.69,35.69,0,0,1,11.8,13.5q4.3,8.4,4.3,21ZM172.4,108a42.81,42.81,0,0,0-5.3-.7q-3.51-.3-10.5-.3a39.36,39.36,0,0,0-9.8,1,15.74,15.74,0,0,0-5.9,2.7,8.9,8.9,0,0,0-2.9,3.9,13,13,0,0,0-.2,8.4,7.34,7.34,0,0,0,2.6,3.6,16.69,16.69,0,0,0,6,2.7,41.41,41.41,0,0,0,10.6,1.1c3.46,0,6.67-.1,9.6-.3a34.65,34.65,0,0,0,5.8-.7Z"/><path class="cls-1" d="M318.8,141.6c-1.47.93-3.4,2.07-5.8,3.4a57.67,57.67,0,0,1-8.7,3.8,84.77,84.77,0,0,1-11.7,3.1,76.29,76.29,0,0,1-14.6,1.3,65,65,0,0,1-20.9-3.4,51,51,0,0,1-17.7-10.1,49.17,49.17,0,0,1-12.2-16.8q-4.6-10.09-4.6-23.5a55.71,55.71,0,0,1,4.5-22.9,48.46,48.46,0,0,1,12.2-16.9,53.56,53.56,0,0,1,18-10.4,65.84,65.84,0,0,1,21.9-3.6,71.1,71.1,0,0,1,19.9,2.7q9.3,2.7,13.9,7.3a19.41,19.41,0,0,1,3.5,4.7,12.71,12.71,0,0,1,1.3,5.9,15.58,15.58,0,0,1-1.2,6.2,20.75,20.75,0,0,1-3,5,34.73,34.73,0,0,1-3.7,3.9,20.71,20.71,0,0,1-3.3,2.5,36.87,36.87,0,0,0-10-6.7A34.53,34.53,0,0,0,281.4,74a30.39,30.39,0,0,0-9.9,1.6,23,23,0,0,0-8.2,4.8,23.22,23.22,0,0,0-5.6,8,27.22,27.22,0,0,0-2.1,11,27.56,27.56,0,0,0,2.1,11.3,21.46,21.46,0,0,0,5.6,7.7,22,22,0,0,0,8.3,4.4,36.38,36.38,0,0,0,10.2,1.4,37.83,37.83,0,0,0,8.5-.9,46.89,46.89,0,0,0,11.9-4.4,13.13,13.13,0,0,0,2.6-1.7Z"/><path class="cls-1" d="M330.19,32.6q0-7.8,4.6-11T347,18.4a34.39,34.39,0,0,1,9.8,1.3c2.94.87,4.8,1.43,5.6,1.7v27h23q9,0,12.8,3.6T402,62.8a28.65,28.65,0,0,1-1.6,9.7,42.59,42.59,0,0,1-2.4,5.9h-35.6v31.4a16,16,0,0,0,1.4,7.3,12.67,12.67,0,0,0,3.5,4.3,11.07,11.07,0,0,0,4.8,2.1,30.49,30.49,0,0,0,5.5.5,29.26,29.26,0,0,0,10.2-1.7,42.22,42.22,0,0,0,6.6-2.9l12.6,22a33.31,33.31,0,0,1-5.2,3.6,52.92,52.92,0,0,1-8.2,3.8,78.18,78.18,0,0,1-10.8,3.1,59.81,59.81,0,0,1-12.6,1.3q-18.79,0-29.4-9.9t-10.6-26.5Z"/><path class="cls-1" d="M447.79,80.8q7.2,0,10.1,4.3t2.9,11.3a32.33,32.33,0,0,1-1.2,9.1q-1.2,4.09-1.6,5.1h-39.6q-7.2,0-10.1-4.3T405.39,95a32.33,32.33,0,0,1,1.2-9.1q1.2-4.09,1.6-5.1Z"/><path class="cls-1" d="M570,141.6c-1.47.93-3.4,2.07-5.8,3.4a57.67,57.67,0,0,1-8.7,3.8,84.77,84.77,0,0,1-11.7,3.1,76.29,76.29,0,0,1-14.6,1.3,65,65,0,0,1-20.9-3.4,51,51,0,0,1-17.7-10.1,49.17,49.17,0,0,1-12.2-16.8q-4.61-10.09-4.6-23.5a55.71,55.71,0,0,1,4.5-22.9,48.46,48.46,0,0,1,12.2-16.9,53.56,53.56,0,0,1,18-10.4,65.84,65.84,0,0,1,21.9-3.6,71.1,71.1,0,0,1,19.9,2.7q9.3,2.7,13.9,7.3a19.41,19.41,0,0,1,3.5,4.7,12.71,12.71,0,0,1,1.3,5.9,15.58,15.58,0,0,1-1.2,6.2,20.75,20.75,0,0,1-3,5,34.73,34.73,0,0,1-3.7,3.9,20.71,20.71,0,0,1-3.3,2.5,36.87,36.87,0,0,0-10-6.7,34.53,34.53,0,0,0-15.2-3.1,30.39,30.39,0,0,0-9.9,1.6,23,23,0,0,0-8.2,4.8,23.22,23.22,0,0,0-5.6,8,27.22,27.22,0,0,0-2.1,11,27.56,27.56,0,0,0,2.1,11.3,21.46,21.46,0,0,0,5.6,7.7,22,22,0,0,0,8.3,4.4,36.38,36.38,0,0,0,10.2,1.4,37.83,37.83,0,0,0,8.5-.9,46.89,46.89,0,0,0,11.9-4.4,13.13,13.13,0,0,0,2.6-1.7Z"/><path class="cls-1" d="M581.39,17.2q0-7.8,4.6-11T598.19,3a33.39,33.39,0,0,1,9.7,1.3c2.86.87,4.7,1.43,5.5,1.7V54.4a37.52,37.52,0,0,1,10.4-6.2q6.6-2.81,17-2.8a52.77,52.77,0,0,1,16.6,2.5,35,35,0,0,1,22.2,21.2,51.94,51.94,0,0,1,3.2,19.1v62.2h-32.2V94.8q0-10.2-4.5-14.8t-13.5-4.6q-9,0-14,5.4t-5,16.8v52.8h-32.2Z"/><path class="cls-1" d="M735,112.8a10.75,10.75,0,0,0,2.1,4.7,17.9,17.9,0,0,0,4.8,4.3,26.37,26.37,0,0,0,7.9,3.2,48.42,48.42,0,0,0,11.6,1.2,51.07,51.07,0,0,0,9.8-.9q4.59-.9,8-1.9a44,44,0,0,0,5.6-2,12.41,12.41,0,0,0,2.6-1.4l11.2,22.4q-1.61,1-5.3,2.8a72.4,72.4,0,0,1-9.3,3.6,98.53,98.53,0,0,1-13.1,3.1,97.57,97.57,0,0,1-16.5,1.3,60.4,60.4,0,0,1-21-3.6,48.28,48.28,0,0,1-28.6-27.4,58.44,58.44,0,0,1-4.2-22.8,56.27,56.27,0,0,1,4.2-22,49.3,49.3,0,0,1,11.6-17,53,53,0,0,1,17.4-10.9,58.88,58.88,0,0,1,21.6-3.9,60.65,60.65,0,0,1,19.4,2.9,43.89,43.89,0,0,1,14.5,7.9,34.8,34.8,0,0,1,9,11.4,30.06,30.06,0,0,1,3.1,13.2,32.71,32.71,0,0,1-2.6,13.3,22.6,22.6,0,0,1-9.3,10q-6.71,4.1-18.2,6.3T742,112.8ZM733.39,92a164.68,164.68,0,0,0,20.8-1,43,43,0,0,0,11-2.6c2.4-1.07,3.86-2.27,4.4-3.6a10.77,10.77,0,0,0,.8-4,9.21,9.21,0,0,0-3.8-7.3q-3.81-3.1-11.4-3.1a21.63,21.63,0,0,0-9.4,1.9,21,21,0,0,0-6.7,4.9,20.56,20.56,0,0,0-4.1,6.9A27,27,0,0,0,733.39,92Z"/><path class="cls-1" d="M909.18,141.6c-1.46.93-3.4,2.07-5.8,3.4a57.67,57.67,0,0,1-8.7,3.8,84.77,84.77,0,0,1-11.7,3.1,76.22,76.22,0,0,1-14.6,1.3,65,65,0,0,1-20.9-3.4,51.15,51.15,0,0,1-17.7-10.1,49.43,49.43,0,0,1-12.2-16.8Q813,112.81,813,99.4a55.71,55.71,0,0,1,4.5-22.9,48.58,48.58,0,0,1,12.2-16.9,53.56,53.56,0,0,1,18-10.4,65.93,65.93,0,0,1,21.9-3.6,71,71,0,0,1,19.9,2.7q9.3,2.7,13.9,7.3a18.91,18.91,0,0,1,3.5,4.7,12.59,12.59,0,0,1,1.3,5.9,15.58,15.58,0,0,1-1.2,6.2,20.75,20.75,0,0,1-3,5,33.85,33.85,0,0,1-3.7,3.9,19.85,19.85,0,0,1-3.3,2.5,36.71,36.71,0,0,0-10-6.7,34.47,34.47,0,0,0-15.2-3.1,30.43,30.43,0,0,0-9.9,1.6,22.55,22.55,0,0,0-13.8,12.8,27.22,27.22,0,0,0-2.1,11,27.56,27.56,0,0,0,2.1,11.3,21.58,21.58,0,0,0,5.6,7.7,22.06,22.06,0,0,0,8.3,4.4,36.38,36.38,0,0,0,10.2,1.4,37.76,37.76,0,0,0,8.5-.9,47.31,47.31,0,0,0,6.9-2.1,46.35,46.35,0,0,0,5-2.3,12.82,12.82,0,0,0,2.6-1.7Z"/><path class="cls-1" d="M920.58,17.2q0-7.8,4.6-11T937.38,3a34.39,34.39,0,0,1,9.8,1.3c2.93.87,4.8,1.43,5.6,1.7V82.3q3.6-3,7.7-6.27t8-6.57q3.9-3.28,7.4-6.18t5.7-4.88q3-2.59,5.3-4.5a23.2,23.2,0,0,1,4.8-3.1A23.65,23.65,0,0,1,997,49a33,33,0,0,1,6.8-.6,22.09,22.09,0,0,1,7.4,1.2,27.88,27.88,0,0,1,6,2.9,24.31,24.31,0,0,1,4.4,3.6,18.41,18.41,0,0,1,2.6,3.3q-3.8,4-9.5,9t-11.8,9.87q-6.11,4.89-11.8,9.37t-9.3,7.48a323.75,323.75,0,0,1,48,55.3H990q-4-5.42-8.8-11t-9.8-10.82q-5-5.22-9.8-9.93t-8.8-8.72v40.5h-32.2Z"/><path class="cls-1" d="M1086,99.4a51.54,51.54,0,0,1,4.4-21.4,52.29,52.29,0,0,1,12.1-17,57,57,0,0,1,17.9-11.3,60.81,60.81,0,0,1,43.9,0,56.93,56.93,0,0,1,18,11.3,52.59,52.59,0,0,1,12.1,17,51.7,51.7,0,0,1,4.4,21.4,51.7,51.7,0,0,1-4.4,21.4,52.59,52.59,0,0,1-12.1,17,56.93,56.93,0,0,1-18,11.3,60.81,60.81,0,0,1-43.9,0,57,57,0,0,1-17.9-11.3,52.29,52.29,0,0,1-12.1-17A51.54,51.54,0,0,1,1086,99.4Zm56.4,25a22.72,22.72,0,0,0,9.3-1.9,23.86,23.86,0,0,0,7.5-5.2,22.4,22.4,0,0,0,4.9-7.9,30.26,30.26,0,0,0,0-20,22.4,22.4,0,0,0-4.9-7.9,23.86,23.86,0,0,0-7.5-5.2,22.72,22.72,0,0,0-9.3-1.9,22.49,22.49,0,0,0-9.4,1.9,24,24,0,0,0-7.4,5.2,22.12,22.12,0,0,0-4.9,7.9,30.26,30.26,0,0,0,0,20,22.12,22.12,0,0,0,4.9,7.9,24,24,0,0,0,7.4,5.2A22.49,22.49,0,0,0,1142.38,124.4Z"/><path class="cls-1" d="M1249,102.8q0,20.81,18.8,20.8t18.8-20.8V62.6q0-7.8,4.6-11t12.2-3.2a34.44,34.44,0,0,1,9.8,1.3c2.93.87,4.8,1.43,5.6,1.7v57.4a45.42,45.42,0,0,1-3.9,19.5,38.63,38.63,0,0,1-10.7,13.8,46.69,46.69,0,0,1-16.2,8.3,74.26,74.26,0,0,1-40.4,0,46.52,46.52,0,0,1-16.2-8.3,38.52,38.52,0,0,1-10.7-13.8,45.42,45.42,0,0,1-3.9-19.5V62.6q0-7.8,4.6-11t12.2-3.2a34.44,34.44,0,0,1,9.8,1.3c2.93.87,4.8,1.43,5.6,1.7Z"/><path class="cls-1" d="M1340.77,86.4a43.34,43.34,0,0,1,3.3-17.4,36.37,36.37,0,0,1,9.11-12.8,38.75,38.75,0,0,1,14-7.9,57.22,57.22,0,0,1,18-2.7q12,0,18.69,2.6t9.7,5.6a16.2,16.2,0,0,1,2.8,4.2,12.43,12.43,0,0,1,1,5.2,17.25,17.25,0,0,1-.89,5.6,21.35,21.35,0,0,1-2.21,4.6,31.38,31.38,0,0,1-2.5,3.4c-.79.93-1.4,1.6-1.79,2a55.88,55.88,0,0,0-8.21-3,37.85,37.85,0,0,0-10.59-1.4,19.58,19.58,0,0,0-12.91,4.4q-5.3,4.4-5.29,14.6v57h-32.21Z"/><path class="cls-1" d="M1584.37,94.8a84,84,0,0,1-2.6,22.2,46.84,46.84,0,0,1-7.4,15.8A48.48,48.48,0,0,1,1555,148a64.4,64.4,0,0,1-26.2,5.2,60.26,60.26,0,0,1-21.9-3.9,52.8,52.8,0,0,1-17.5-10.9,49.44,49.44,0,0,1-11.6-17,56.27,56.27,0,0,1-4.2-22,59.85,59.85,0,0,1,3.9-22.1,51.29,51.29,0,0,1,10.6-16.9A47.94,47.94,0,0,1,1523,45.6q11.21,0,18.5,3.7a43.21,43.21,0,0,1,10.9,7.3V17.2q0-7.8,4.6-11t12.2-3.2a33.39,33.39,0,0,1,9.7,1.3c2.87.87,4.7,1.43,5.5,1.7Zm-54.8,28.8q10,0,16.5-6.4t6.5-17.6a27.28,27.28,0,0,0-1.7-9.7,23.14,23.14,0,0,0-4.8-7.8,22.89,22.89,0,0,0-7.3-5.2,22,22,0,0,0-9.2-1.9,21.68,21.68,0,0,0-16.5,6.9q-6.49,6.9-6.5,17.7t6.5,17.4A22.17,22.17,0,0,0,1529.57,123.6Z"/><path class="cls-1" d="M1698.37,149.8a34.38,34.38,0,0,1-5.4.9q-4.2.5-10.5,1.1t-14.4,1q-8.1.4-17.1.4-15.21,0-25.2-2.7t-16-7.3a25.06,25.06,0,0,1-8.4-10.7,34.94,34.94,0,0,1-2.4-12.9q0-18.4,11.8-26.3t37.4-7.9q6.39,0,10.7.2t7.1.6a12.72,12.72,0,0,0-5.7-11q-5.7-4-18.9-4a74.27,74.27,0,0,0-10.9.7,56.73,56.73,0,0,0-8,1.7,34.48,34.48,0,0,0-5.3,2,20,20,0,0,0-2.8,1.6l-1.6-1.6a17.77,17.77,0,0,1-2.4-3.1,28.3,28.3,0,0,1-2.2-4.3,13.31,13.31,0,0,1-1-5.2q0-17.4,35.6-17.4a108,108,0,0,1,21.8,2.1,48.5,48.5,0,0,1,17.7,7.2,35.69,35.69,0,0,1,11.8,13.5q4.29,8.4,4.3,21Zm-32.2-41.8a42.81,42.81,0,0,0-5.3-.7q-3.51-.3-10.5-.3a39.36,39.36,0,0,0-9.8,1,15.74,15.74,0,0,0-5.9,2.7,8.9,8.9,0,0,0-2.9,3.9,13,13,0,0,0-.2,8.4,7.34,7.34,0,0,0,2.6,3.6,16.69,16.69,0,0,0,6,2.7,41.41,41.41,0,0,0,10.6,1.1q5.19,0,9.6-.3a34.65,34.65,0,0,0,5.8-.7Z"/><path class="cls-1" d="M1720.36,32.6q0-7.8,4.6-11t12.2-3.2a34.34,34.34,0,0,1,9.8,1.3c2.94.87,4.81,1.43,5.6,1.7v27h23q9,0,12.8,3.6t3.8,10.8a28.65,28.65,0,0,1-1.6,9.7,42.59,42.59,0,0,1-2.4,5.9h-35.6v31.4a16,16,0,0,0,1.4,7.3,12.67,12.67,0,0,0,3.5,4.3,11.06,11.06,0,0,0,4.81,2.1,30.33,30.33,0,0,0,5.5.5,29.24,29.24,0,0,0,10.19-1.7,42.22,42.22,0,0,0,6.6-2.9l12.6,22a33.31,33.31,0,0,1-5.2,3.6,53.21,53.21,0,0,1-8.19,3.8,78.74,78.74,0,0,1-10.81,3.1,59.74,59.74,0,0,1-12.6,1.3q-18.79,0-29.4-9.9t-10.6-26.5Z"/><path class="cls-1" d="M1903.56,149.8a34.38,34.38,0,0,1-5.4.9q-4.2.5-10.5,1.1t-14.4,1q-8.1.4-17.1.4-15.2,0-25.2-2.7t-16-7.3a25.06,25.06,0,0,1-8.4-10.7,34.94,34.94,0,0,1-2.4-12.9q0-18.4,11.8-26.3t37.4-7.9c4.27,0,7.83.07,10.7.2s5.23.33,7.1.6a12.72,12.72,0,0,0-5.7-11q-5.7-4-18.9-4a74.36,74.36,0,0,0-10.9.7,57,57,0,0,0-8,1.7,34.48,34.48,0,0,0-5.3,2,20.58,20.58,0,0,0-2.8,1.6l-1.6-1.6a17.77,17.77,0,0,1-2.4-3.1,29.24,29.24,0,0,1-2.2-4.3,13.31,13.31,0,0,1-1-5.2q0-17.4,35.6-17.4a108,108,0,0,1,21.8,2.1,48.5,48.5,0,0,1,17.7,7.2,35.69,35.69,0,0,1,11.8,13.5q4.31,8.4,4.3,21Zm-32.2-41.8a42.81,42.81,0,0,0-5.3-.7q-3.49-.3-10.5-.3a39.36,39.36,0,0,0-9.8,1,15.82,15.82,0,0,0-5.9,2.7,8.9,8.9,0,0,0-2.9,3.9,13.45,13.45,0,0,0-.8,4.6,13.21,13.21,0,0,0,.6,3.8,7.4,7.4,0,0,0,2.6,3.6,16.69,16.69,0,0,0,6,2.7,41.46,41.46,0,0,0,10.6,1.1q5.2,0,9.6-.3a34.5,34.5,0,0,0,5.8-.7Z"/></g></g></svg>