<svg id="Layer_1" data-name="Layer 1" xmlns="http://www.w3.org/2000/svg" viewBox="0 0 259.26 232.01"><defs><style>.cls-1{fill:none;stroke-miterlimit:10;stroke-width:30px;}.cls-1,.cls-2{stroke:#e77849;stroke-linecap:round;}.cls-2{fill:#e77849;stroke-linejoin:round;stroke-width:20px;}</style></defs><path class="cls-1" d="M243.91,189.59l.35-73.2c.27-56.26-50.76-101.66-114-101.39S15.61,61.09,15.35,117.35L15,190.56"/><path class="cls-2" d="M83.29,136.92h0c-4.5-.18-19.33-.76-27.14,6.07-8,7-8,21.49-8,35.39,0,13,0,24,6.84,32.92,9.9,12.87,26,10.71,28.28,10.36q-.48-20.44-.47-41.95Q82.75,157.78,83.29,136.92Z"/><path class="cls-2" d="M176,136.92H176c4.5-.18,19.32-.76,27.13,6.07,8,7,8,21.49,8,35.39,0,13,0,24-6.85,32.92-9.9,12.87-26,10.71-28.28,10.36q.48-20.44.47-41.95Q176.51,157.78,176,136.92Z"/></svg>