<svg xmlns="http://www.w3.org/2000/svg" viewBox="0 0 1813.57 156.2"><defs><style>.cls-1{fill:#4a4a4a;stroke:#e870a7;stroke-miterlimit:10;stroke-width:6px;}</style></defs><g id="Layer_2" data-name="Layer 2"><g id="Layer_1-2" data-name="Layer 1"><path class="cls-1" d="M3,31a21.65,21.65,0,0,1,1.2-7.6,16.34,16.34,0,0,1,3.1-5.3,12.84,12.84,0,0,1,4.4-3.2,20.64,20.64,0,0,1,5.1-1.5c1.33-.27,2.9-.53,4.7-.8s4.07-.5,6.8-.7,6.07-.37,10-.5,8.7-.2,14.3-.2q18,0,30,3.9t19.3,10.5a37.58,37.58,0,0,1,10.4,15.1,51.21,51.21,0,0,1,3.1,17.7,47.16,47.16,0,0,1-5,21.9Q105.4,90,94,96.2q3,4.8,6.6,11.2t7.5,13.5q3.9,7.09,7.7,14.7t7.2,14.8H84.8q-1-2.21-3.7-8.3t-6.2-13.2q-3.5-7.09-7.2-13.9t-6.3-10.6a39.84,39.84,0,0,1-5.7.4H49.6c-.8,0-1.9,0-3.3-.1l-4.3-.2c-1.47-.07-2.8-.13-4-.2a11.59,11.59,0,0,1-2.4-.3v46.4H3ZM35.6,75.6a10.56,10.56,0,0,1,1.7.2c.73.13,1.77.27,3.1.4s3,.23,5.1.3,4.63.1,7.7.1a54.93,54.93,0,0,0,14.1-1.5,23.43,23.43,0,0,0,8.6-4,12.49,12.49,0,0,0,4.2-5.8,21.14,21.14,0,0,0,1.1-6.7,22.24,22.24,0,0,0-1-6.5A13.6,13.6,0,0,0,76.1,46a23.58,23.58,0,0,0-8.9-4.6q-5.81-1.8-15.4-1.8-7,0-11.1.3c-2.73.2-4.43.37-5.1.5Z"/><path class="cls-1" d="M164.2,112.8a11,11,0,0,0,2.1,4.7,17.9,17.9,0,0,0,4.8,4.3A26.48,26.48,0,0,0,179,125a48.42,48.42,0,0,0,11.6,1.2,51.07,51.07,0,0,0,9.8-.9c3.07-.6,5.73-1.23,8-1.9a43.46,43.46,0,0,0,5.6-2,12.12,12.12,0,0,0,2.6-1.4l11.2,22.4c-1.07.67-2.83,1.6-5.3,2.8a72.4,72.4,0,0,1-9.3,3.6,98.15,98.15,0,0,1-13.1,3.1,96.55,96.55,0,0,1-16.5,1.3,60.4,60.4,0,0,1-21-3.6A48.28,48.28,0,0,1,134,122.2a58.44,58.44,0,0,1-4.2-22.8,56.27,56.27,0,0,1,4.2-22,49.44,49.44,0,0,1,11.6-17A53,53,0,0,1,163,49.5a59,59,0,0,1,21.6-3.9A60.6,60.6,0,0,1,204,48.5a43.89,43.89,0,0,1,14.5,7.9,34.8,34.8,0,0,1,9,11.4A30.06,30.06,0,0,1,230.6,81,32.71,32.71,0,0,1,228,94.3a22.48,22.48,0,0,1-9.3,10q-6.7,4.1-18.2,6.3t-29.3,2.2ZM162.6,92a164.57,164.57,0,0,0,20.8-1,43,43,0,0,0,11-2.6q3.6-1.61,4.4-3.6a10.77,10.77,0,0,0,.8-4,9.21,9.21,0,0,0-3.8-7.3q-3.8-3.1-11.4-3.1a21.66,21.66,0,0,0-9.4,1.9,21,21,0,0,0-6.7,4.9,20.56,20.56,0,0,0-4.1,6.9A27.29,27.29,0,0,0,162.6,92Z"/><path class="cls-1" d="M338.4,141.6q-2.2,1.41-5.8,3.4a57.67,57.67,0,0,1-8.7,3.8,84.77,84.77,0,0,1-11.7,3.1,75.5,75.5,0,0,1-14.6,1.3,65,65,0,0,1-20.9-3.4A50.81,50.81,0,0,1,259,139.7a49.17,49.17,0,0,1-12.2-16.8q-4.61-10.09-4.6-23.5a55.71,55.71,0,0,1,4.5-22.9,48.46,48.46,0,0,1,12.2-16.9,53.56,53.56,0,0,1,18-10.4,65.84,65.84,0,0,1,21.9-3.6,71.1,71.1,0,0,1,19.9,2.7q9.3,2.7,13.9,7.3a19.41,19.41,0,0,1,3.5,4.7,12.71,12.71,0,0,1,1.3,5.9,15.58,15.58,0,0,1-1.2,6.2,20.75,20.75,0,0,1-3,5,34.73,34.73,0,0,1-3.7,3.9,20.71,20.71,0,0,1-3.3,2.5,36.87,36.87,0,0,0-10-6.7A34.53,34.53,0,0,0,301,74a30.39,30.39,0,0,0-9.9,1.6,23,23,0,0,0-8.2,4.8,23.22,23.22,0,0,0-5.6,8,27.22,27.22,0,0,0-2.1,11,27.56,27.56,0,0,0,2.1,11.3,21.46,21.46,0,0,0,5.6,7.7,22,22,0,0,0,8.3,4.4,36.38,36.38,0,0,0,10.2,1.4,37.83,37.83,0,0,0,8.5-.9,46.89,46.89,0,0,0,11.9-4.4,13.13,13.13,0,0,0,2.6-1.7Z"/><path class="cls-1" d="M344.6,99.4A51.54,51.54,0,0,1,349,78a52.29,52.29,0,0,1,12.1-17A57,57,0,0,1,379,49.7a60.81,60.81,0,0,1,43.9,0,56.93,56.93,0,0,1,18,11.3A52.59,52.59,0,0,1,453,78a51.7,51.7,0,0,1,4.4,21.4,51.7,51.7,0,0,1-4.4,21.4,52.59,52.59,0,0,1-12.1,17,56.93,56.93,0,0,1-18,11.3,60.81,60.81,0,0,1-43.9,0,57,57,0,0,1-17.9-11.3,52.29,52.29,0,0,1-12.1-17A51.54,51.54,0,0,1,344.6,99.4Zm56.4,25a22.72,22.72,0,0,0,9.3-1.9,23.86,23.86,0,0,0,7.5-5.2,22.4,22.4,0,0,0,4.9-7.9,30.26,30.26,0,0,0,0-20,22.4,22.4,0,0,0-4.9-7.9,23.86,23.86,0,0,0-7.5-5.2,22.72,22.72,0,0,0-9.3-1.9,22.49,22.49,0,0,0-9.4,1.9,24,24,0,0,0-7.4,5.2,22.12,22.12,0,0,0-4.9,7.9,30.26,30.26,0,0,0,0,20,22.12,22.12,0,0,0,4.9,7.9,24,24,0,0,0,7.4,5.2A22.49,22.49,0,0,0,401,124.4Z"/><path class="cls-1" d="M475.39,85a39.22,39.22,0,0,1,3.5-17.1,35.42,35.42,0,0,1,9.6-12.3,41.31,41.31,0,0,1,14.4-7.5A62.41,62.41,0,0,1,521,45.6a54.15,54.15,0,0,1,21.4,4,38.42,38.42,0,0,1,15.2,11.2,38.74,38.74,0,0,1,15-11.2,52.68,52.68,0,0,1,21.2-4,61.66,61.66,0,0,1,17.9,2.5,41.31,41.31,0,0,1,14.4,7.5,35.42,35.42,0,0,1,9.6,12.3,39.22,39.22,0,0,1,3.5,17.1v65.4H607V94.2q0-10.2-4.2-14.6T591,75.2a16.65,16.65,0,0,0-12.7,5.2q-4.9,5.2-4.9,16.6v53.4h-32.2V97q0-11.4-4.8-16.6a16.33,16.33,0,0,0-12.6-5.2q-7.6,0-11.9,4.4t-4.3,14.6v56.2h-32.2Z"/><path class="cls-1" d="M661.19,85a39.22,39.22,0,0,1,3.5-17.1,35.42,35.42,0,0,1,9.6-12.3,41.31,41.31,0,0,1,14.4-7.5,62.41,62.41,0,0,1,18.1-2.5,54.15,54.15,0,0,1,21.4,4,38.42,38.42,0,0,1,15.2,11.2,38.74,38.74,0,0,1,15-11.2,52.68,52.68,0,0,1,21.2-4,61.66,61.66,0,0,1,17.9,2.5,41.31,41.31,0,0,1,14.4,7.5,35.42,35.42,0,0,1,9.6,12.3A39.22,39.22,0,0,1,825,85v65.4h-32.2V94.2q0-10.2-4.2-14.6t-11.8-4.4a16.65,16.65,0,0,0-12.7,5.2q-4.9,5.2-4.9,16.6v53.4H727V97q0-11.4-4.8-16.6a16.33,16.33,0,0,0-12.6-5.2q-7.61,0-11.9,4.4t-4.3,14.6v56.2h-32.2Z"/><path class="cls-1" d="M877.19,112.8a10.75,10.75,0,0,0,2.1,4.7,17.9,17.9,0,0,0,4.8,4.3A26.37,26.37,0,0,0,892,125a48.42,48.42,0,0,0,11.6,1.2,51.07,51.07,0,0,0,9.8-.9q4.59-.9,8-1.9a44,44,0,0,0,5.6-2,12.41,12.41,0,0,0,2.6-1.4l11.2,22.4q-1.6,1-5.3,2.8a72.4,72.4,0,0,1-9.3,3.6,98.53,98.53,0,0,1-13.1,3.1,96.55,96.55,0,0,1-16.5,1.3,60.4,60.4,0,0,1-21-3.6A48.28,48.28,0,0,1,847,122.2a58.44,58.44,0,0,1-4.2-22.8,56.27,56.27,0,0,1,4.2-22,49.3,49.3,0,0,1,11.6-17A53,53,0,0,1,876,49.5a58.88,58.88,0,0,1,21.6-3.9A60.65,60.65,0,0,1,917,48.5a43.89,43.89,0,0,1,14.5,7.9,34.8,34.8,0,0,1,9,11.4,30.06,30.06,0,0,1,3.1,13.2A32.71,32.71,0,0,1,941,94.3a22.6,22.6,0,0,1-9.3,10q-6.71,4.1-18.2,6.3t-29.3,2.2ZM875.59,92a164.68,164.68,0,0,0,20.8-1,43,43,0,0,0,11-2.6c2.4-1.07,3.86-2.27,4.4-3.6a10.77,10.77,0,0,0,.8-4,9.21,9.21,0,0,0-3.8-7.3q-3.81-3.1-11.4-3.1a21.63,21.63,0,0,0-9.4,1.9,21,21,0,0,0-6.7,4.9,20.56,20.56,0,0,0-4.1,6.9A27,27,0,0,0,875.59,92Z"/><path class="cls-1" d="M956.19,88.6a41.21,41.21,0,0,1,4-18.5,38,38,0,0,1,11-13.5,50.07,50.07,0,0,1,16.2-8.2,71.05,71.05,0,0,1,39.5,0,48.89,48.89,0,0,1,16.2,8.2A38.61,38.61,0,0,1,1054,70.1a41.34,41.34,0,0,1,4,18.5v61.8h-32.2V96q0-10.6-4.8-15.7t-13.8-5.1q-18.81,0-18.8,20.8v54.4h-32.2Z"/><path class="cls-1" d="M1186.78,94.8a83.62,83.62,0,0,1-2.6,22.2,46.75,46.75,0,0,1-7.4,15.8,48.39,48.39,0,0,1-19.4,15.2,64.23,64.23,0,0,1-26.2,5.2,60.26,60.26,0,0,1-21.9-3.9,52.8,52.8,0,0,1-17.5-10.9,49.44,49.44,0,0,1-11.6-17,56.27,56.27,0,0,1-4.2-22,59.85,59.85,0,0,1,3.9-22.1,51.29,51.29,0,0,1,10.6-16.9,47.94,47.94,0,0,1,34.9-14.8q11.2,0,18.5,3.7a43.21,43.21,0,0,1,10.9,7.3V17.2q0-7.8,4.6-11t12.2-3.2a33.34,33.34,0,0,1,9.7,1.3c2.87.87,4.7,1.43,5.5,1.7ZM1132,123.6q10,0,16.5-6.4t6.5-17.6a27.06,27.06,0,0,0-1.7-9.7,23.14,23.14,0,0,0-4.8-7.8,22.78,22.78,0,0,0-7.3-5.2A22,22,0,0,0,1132,75a21.68,21.68,0,0,0-16.5,6.9q-6.49,6.9-6.5,17.7t6.5,17.4A22.17,22.17,0,0,0,1132,123.6Z"/><path class="cls-1" d="M1300.78,149.8a34.38,34.38,0,0,1-5.4.9q-4.2.5-10.5,1.1t-14.4,1q-8.1.4-17.1.4-15.2,0-25.2-2.7t-16-7.3a25.06,25.06,0,0,1-8.4-10.7,34.94,34.94,0,0,1-2.4-12.9q0-18.4,11.8-26.3t37.4-7.9c4.27,0,7.83.07,10.7.2s5.23.33,7.1.6a12.72,12.72,0,0,0-5.7-11q-5.7-4-18.9-4a74.36,74.36,0,0,0-10.9.7,57,57,0,0,0-8,1.7,34.48,34.48,0,0,0-5.3,2,20.58,20.58,0,0,0-2.8,1.6l-1.6-1.6a17.77,17.77,0,0,1-2.4-3.1,29.24,29.24,0,0,1-2.2-4.3,13.31,13.31,0,0,1-1-5.2q0-17.4,35.6-17.4a108,108,0,0,1,21.8,2.1,48.5,48.5,0,0,1,17.7,7.2,35.69,35.69,0,0,1,11.8,13.5q4.3,8.4,4.3,21Zm-32.2-41.8a42.81,42.81,0,0,0-5.3-.7q-3.49-.3-10.5-.3a39.36,39.36,0,0,0-9.8,1,15.82,15.82,0,0,0-5.9,2.7,8.9,8.9,0,0,0-2.9,3.9,13.45,13.45,0,0,0-.8,4.6,13.21,13.21,0,0,0,.6,3.8,7.36,7.36,0,0,0,2.6,3.6,16.69,16.69,0,0,0,6,2.7,41,41,0,0,0,10.6,1.1q5.21,0,9.6-.3a34.5,34.5,0,0,0,5.8-.7Z"/><path class="cls-1" d="M1322.78,32.6q0-7.8,4.6-11t12.2-3.2a34.44,34.44,0,0,1,9.8,1.3c2.93.87,4.8,1.43,5.6,1.7v27h23q9,0,12.8,3.6t3.8,10.8a28.9,28.9,0,0,1-1.6,9.7,45.38,45.38,0,0,1-2.4,5.9H1355v31.4a15.88,15.88,0,0,0,1.4,7.3,12.55,12.55,0,0,0,3.5,4.3,11.07,11.07,0,0,0,4.8,2.1,30.41,30.41,0,0,0,5.5.5,29.34,29.34,0,0,0,10.2-1.7,43.12,43.12,0,0,0,6.6-2.9l12.6,22a33.8,33.8,0,0,1-5.2,3.6,53.36,53.36,0,0,1-8.2,3.8,78.18,78.18,0,0,1-10.8,3.1,59.15,59.15,0,0,1-12.6,1.3q-18.81,0-29.4-9.9t-10.6-26.5Z"/><path class="cls-1" d="M1410.78,21a17.57,17.57,0,0,1,5.1-12.8,17,17,0,0,1,12.7-5.2,17.4,17.4,0,0,1,12.8,5.2,17.42,17.42,0,0,1,5.2,12.8,17.09,17.09,0,0,1-5.2,12.7,17.59,17.59,0,0,1-12.8,5.1,17.43,17.43,0,0,1-17.8-17.8Zm1.8,41.6q0-7.8,4.59-11t12.21-3.2a34.32,34.32,0,0,1,9.79,1.3c2.94.87,4.81,1.43,5.61,1.7v99h-32.2Z"/><path class="cls-1" d="M1463.77,99.4a51.7,51.7,0,0,1,4.4-21.4,52.44,52.44,0,0,1,12.1-17,57,57,0,0,1,17.9-11.3,60.81,60.81,0,0,1,43.9,0,56.71,56.71,0,0,1,18,11.3,52.29,52.29,0,0,1,12.1,17,51.7,51.7,0,0,1,4.4,21.4,51.7,51.7,0,0,1-4.4,21.4,52.29,52.29,0,0,1-12.1,17,56.71,56.71,0,0,1-18,11.3,60.81,60.81,0,0,1-43.9,0,57,57,0,0,1-17.9-11.3,52.44,52.44,0,0,1-12.1-17A51.7,51.7,0,0,1,1463.77,99.4Zm56.4,25a22.72,22.72,0,0,0,9.3-1.9,23.63,23.63,0,0,0,7.5-5.2,22.26,22.26,0,0,0,4.9-7.9,30.26,30.26,0,0,0,0-20,22.26,22.26,0,0,0-4.9-7.9,23.63,23.63,0,0,0-7.5-5.2,24,24,0,0,0-18.7,0,24,24,0,0,0-7.4,5.2,22.26,22.26,0,0,0-4.9,7.9,30.26,30.26,0,0,0,0,20,22.26,22.26,0,0,0,4.9,7.9,24,24,0,0,0,7.4,5.2A22.52,22.52,0,0,0,1520.17,124.4Z"/><path class="cls-1" d="M1591.57,88.6a41.21,41.21,0,0,1,4-18.5,38.12,38.12,0,0,1,11-13.5,50.28,50.28,0,0,1,16.2-8.2,71.05,71.05,0,0,1,39.5,0,48.89,48.89,0,0,1,16.2,8.2,38.61,38.61,0,0,1,10.9,13.5,41.21,41.21,0,0,1,4,18.5v61.8h-32.2V96q0-10.6-4.8-15.7t-13.8-5.1q-18.79,0-18.8,20.8v54.4h-32.2Z"/><path class="cls-1" d="M1720.77,119.2a30.55,30.55,0,0,0,5.3,2.9,65.7,65.7,0,0,0,8.8,3.2,100.22,100.22,0,0,0,11.6,2.6,82.38,82.38,0,0,0,13.7,1.1q8.19,0,12.4-1.5t4.2-5.3a5.48,5.48,0,0,0-3.5-5.5,45.21,45.21,0,0,0-10.9-2.5L1752,113a117.1,117.1,0,0,1-15-2.9,41.47,41.47,0,0,1-12.7-5.6,27,27,0,0,1-8.7-9.5q-3.21-5.81-3.2-14.6a34.42,34.42,0,0,1,2.7-13.7,28.52,28.52,0,0,1,8.5-11,42.77,42.77,0,0,1,14.8-7.4,74.94,74.94,0,0,1,21.4-2.7,126.9,126.9,0,0,1,21.7,1.6,55.08,55.08,0,0,1,15.7,5,18.94,18.94,0,0,1,6.1,4.9,11.08,11.08,0,0,1,2.3,7.1,12.27,12.27,0,0,1-1.3,5.7,19.07,19.07,0,0,1-3,4.3,19.58,19.58,0,0,1-3.2,2.8c-1,.67-1.64,1.07-1.9,1.2a22,22,0,0,0-3.3-2.2,37.71,37.71,0,0,0-7.2-3.1,84.77,84.77,0,0,0-10.8-2.7,76.91,76.91,0,0,0-14.3-1.2q-9,0-12.5,2.1c-2.34,1.4-3.5,3.23-3.5,5.5a4.87,4.87,0,0,0,3.2,4.8,41.49,41.49,0,0,0,9.6,2.4l18.2,2.6a91.43,91.43,0,0,1,13.1,2.9,36.69,36.69,0,0,1,11.2,5.5,26.32,26.32,0,0,1,7.8,9.2,29.32,29.32,0,0,1,2.9,13.6q0,16.8-12.8,26.2t-35.4,9.4a121.3,121.3,0,0,1-20.9-1.6,122.64,122.64,0,0,1-15.7-3.7,58,58,0,0,1-10.7-4.4,55.68,55.68,0,0,1-5.7-3.5Z"/></g></g></svg>